<svg width="88" height="89" viewBox="0 0 88 89" fill="none" xmlns="http://www.w3.org/2000/svg">
<rect width="6.01351" height="30.0676" fill="#F1950D"/>
<rect y="6.01343" width="6.01351" height="30.0676" transform="rotate(-90 0 6.01343)" fill="#F1950D"/>
<rect width="6.01351" height="30.0676" transform="matrix(-1 0 0 1 87.7973 0)" fill="#F1950D"/>
<rect width="6.01351" height="30.0676" transform="matrix(4.37114e-08 -1 -1 -4.37114e-08 87.7973 6.01343)" fill="#F1950D"/>
<rect width="6.01351" height="30.0676" transform="matrix(1 0 0 -1 0 89)" fill="#F1950D"/>
<rect width="6.01351" height="30.0676" transform="matrix(-4.37114e-08 1 1 4.37114e-08 0 82.9866)" fill="#F1950D"/>
<rect x="87.7973" y="89" width="6.01351" height="30.0676" transform="rotate(-180 87.7973 89)" fill="#F1950D"/>
<rect x="87.7973" y="82.9866" width="6.01351" height="30.0676" transform="rotate(90 87.7973 82.9866)" fill="#F1950D"/>
</svg>
